<svg width="120" height="120" viewBox="0 0 120 120" fill="none" xmlns="http://www.w3.org/2000/svg">
<path d="M3.55767 51.5337L38.2637 16.7676L48.4113 26.9752C46.9702 32.0791 49.312 37.6632 53.9955 40.3653V73.6302C50.3928 75.6718 47.991 79.5747 47.991 84.018C47.991 87.203 49.2562 90.2575 51.5084 92.5097C53.7605 94.7618 56.815 96.027 60 96.027C63.185 96.027 66.2395 94.7618 68.4916 92.5097C70.7438 90.2575 72.009 87.203 72.009 84.018C72.009 79.5747 69.6072 75.6718 66.0045 73.6302V44.4483L78.4338 56.9977C78.0135 57.8984 78.0135 58.9192 78.0135 60C78.0135 63.185 79.2787 66.2395 81.5309 68.4916C83.783 70.7438 86.8375 72.009 90.0225 72.009C93.2075 72.009 96.262 70.7438 98.5142 68.4916C100.766 66.2395 102.032 63.185 102.032 60C102.032 56.815 100.766 53.7605 98.5142 51.5084C96.262 49.2562 93.2075 47.991 90.0225 47.991C88.9417 47.991 87.9209 47.991 87.0203 48.4113L71.5887 32.9797C72.3342 30.1987 72.0452 27.2415 70.7753 24.6574C69.5053 22.0734 67.3407 20.038 64.6835 18.9292C62.1016 17.9685 59.3996 17.7283 56.9977 18.3888L46.7901 8.24118L51.5337 3.55767C56.2172 -1.18589 63.7828 -1.18589 68.4663 3.55767L116.442 51.5337C121.186 56.2172 121.186 63.7828 116.442 68.4663L68.4663 116.442C63.7828 121.186 56.2172 121.186 51.5337 116.442L3.55767 68.4663C-1.18589 63.7828 -1.18589 56.2172 3.55767 51.5337Z" fill="#F24E1E"/>
</svg>
