<svg width="40" height="40" viewBox="0 0 40 40" fill="none" xmlns="http://www.w3.org/2000/svg">
<path d="M20.001 0C8.95045 0 3.29018e-06 8.95045 3.29018e-06 20.001C-0.00240494 24.1995 1.31727 28.2922 3.77181 31.6985C6.22636 35.1048 9.69115 37.6517 13.6747 38.9779C14.6747 39.152 15.0508 38.5519 15.0508 38.0259C15.0508 37.5519 15.0248 35.9778 15.0248 34.3017C10.0005 35.2278 8.70044 33.0776 8.30042 31.9516C8.07441 31.3756 7.10036 29.6015 6.25031 29.1255C5.55028 28.7514 4.55023 27.8254 6.22431 27.8014C7.80039 27.7754 8.92445 29.2515 9.30047 29.8515C11.1006 32.8756 13.9747 32.0256 15.1248 31.5016C15.3008 30.2015 15.8248 29.3275 16.4008 28.8274C11.9506 28.3274 7.30037 26.6013 7.30037 18.9509C7.30037 16.7748 8.07441 14.9767 9.35047 13.5747C9.15046 13.0747 8.45042 11.0245 9.55048 8.27441C9.55048 8.27441 11.2246 7.75039 15.0508 10.3265C16.679 9.87461 18.3612 9.64717 20.051 9.65048C21.7511 9.65048 23.4512 9.87449 25.0513 10.3245C28.8774 7.72439 30.5515 8.27641 30.5515 8.27641C31.6516 11.0265 30.9515 13.0767 30.7515 13.5767C32.0256 14.9767 32.8016 16.7508 32.8016 18.9509C32.8016 26.6273 28.1274 28.3274 23.6752 28.8274C24.4012 29.4515 25.0273 30.6515 25.0273 32.5276C25.0273 35.2018 25.0013 37.3519 25.0013 38.0279C25.0013 38.5519 25.3773 39.176 26.3773 38.9759C30.3472 37.6351 33.7967 35.0832 36.2404 31.6794C38.6841 28.2756 39.999 24.1912 40 20.001C40 8.95045 31.0496 0 19.999 0H20.001Z" fill="#545454"/>
</svg>
