<svg width="50" height="50" viewBox="0 0 50 50" fill="none" xmlns="http://www.w3.org/2000/svg">
<g clip-path="url(#clip0_148_17)">
<path d="M50 11.3687V40.3457C50 42.2291 48.475 43.7541 46.5917 43.7541H38.6354V24.4374L25 34.6666L11.3646 24.4374V43.7562H3.40833C2.96057 43.7562 2.51719 43.6679 2.10354 43.4965C1.68989 43.3251 1.31406 43.0739 0.997541 42.7571C0.681021 42.4404 0.430009 42.0644 0.258846 41.6507C0.0876841 41.2369 -0.000273058 40.7935 6.36774e-07 40.3457V11.3687C6.36774e-07 7.15407 4.81042 4.74782 8.18125 7.27699L11.3646 9.66657L25 19.8916L38.6354 9.6624L41.8187 7.27699C45.1875 4.7499 50 7.15407 50 11.3687Z" fill="#545454"/>
</g>
<defs>
<clipPath id="clip0_148_17">
<rect width="50" height="50" fill="white"/>
</clipPath>
</defs>
</svg>
