<svg width="118" height="120" viewBox="0 0 118 120" fill="none" xmlns="http://www.w3.org/2000/svg">
<path d="M116.98 27.1473C117.023 27.3071 117.046 27.4719 117.046 27.6376V53.3952C117.046 54.0681 116.684 54.6897 116.098 55.0244L94.3909 67.4719V92.1421C94.391 92.4722 94.3039 92.7965 94.1385 93.0825C93.973 93.3686 93.7349 93.6062 93.4481 93.7717L48.135 119.75C48.0312 119.808 47.9183 119.846 47.8049 119.886C47.7624 119.9 47.7226 119.926 47.6778 119.938C47.361 120.021 47.028 120.021 46.7113 119.938C46.6591 119.924 46.612 119.895 46.5627 119.877C46.4589 119.839 46.3505 119.806 46.2518 119.75L0.947795 93.7713C0.65991 93.6067 0.420697 93.3694 0.254291 93.0834C0.087885 92.7974 0.000171619 92.4727 0 92.1421L0 14.8695C0 14.7002 0.0237749 14.5358 0.0658382 14.3764C0.0800117 14.3222 0.112931 14.273 0.132134 14.2189C0.167339 14.1205 0.200715 14.0194 0.25238 13.9279C0.287585 13.8669 0.339249 13.8177 0.38177 13.7612C0.436178 13.6861 0.485556 13.6087 0.549109 13.5427C0.603516 13.489 0.674384 13.4489 0.73565 13.402C0.804231 13.3455 0.86504 13.2845 0.942766 13.2399H0.945052L23.598 0.250938C23.8848 0.0865298 24.21 0 24.5409 0C24.8719 0 25.1971 0.0865298 25.4839 0.250938L48.1368 13.2399H48.1414C48.2169 13.2872 48.2809 13.3455 48.349 13.3997C48.4103 13.4466 48.4788 13.489 48.5328 13.5409C48.5991 13.6087 48.6462 13.6866 48.7024 13.7612C48.7426 13.8177 48.7971 13.8669 48.83 13.9279C48.8839 14.0217 48.9146 14.1205 48.9525 14.2193C48.9712 14.273 49.0042 14.3222 49.0183 14.3787C49.0618 14.5385 49.0842 14.7038 49.0846 14.8695V63.1325L67.961 52.3078V27.6354C67.961 27.4715 67.9848 27.3043 68.0273 27.1473C68.0437 27.0908 68.0744 27.0416 68.0931 26.9879C68.1311 26.8891 68.164 26.7875 68.2157 26.6965C68.2509 26.6355 68.3025 26.5863 68.3432 26.5298C68.3995 26.4547 68.4465 26.3773 68.5124 26.3113C68.5672 26.2575 68.6354 26.2175 68.6966 26.1706C68.7675 26.1141 68.8288 26.0531 68.9042 26.0085H68.9065L91.5617 13.0195C91.8485 12.8549 92.1737 12.7682 92.5047 12.7682C92.8357 12.7682 93.1609 12.8549 93.4477 13.0195L116.101 26.0085C116.181 26.0554 116.242 26.1141 116.313 26.1678C116.371 26.2152 116.44 26.2575 116.494 26.309C116.56 26.3773 116.607 26.4547 116.663 26.5298C116.706 26.5863 116.758 26.6355 116.791 26.6965C116.845 26.7875 116.876 26.8891 116.913 26.9879C116.935 27.0416 116.966 27.0908 116.98 27.1473ZM113.27 52.3083V30.8892L105.342 35.4339L94.3904 41.7139V63.133L113.272 52.3083H113.27ZM90.6166 91.0552V69.6211L79.8439 75.7486L49.0823 93.2335V114.868L90.6166 91.0543V91.0552ZM3.77609 18.1206V91.0552L45.3058 114.867V93.2358L23.6103 81.0073L23.6034 81.0027L23.5943 80.9982C23.5211 80.9558 23.4594 80.8948 23.3913 80.8433C23.3319 80.796 23.2637 80.7587 23.2121 80.7067L23.2075 80.6999C23.1462 80.6412 23.1037 80.5683 23.052 80.5028C23.0045 80.439 22.9483 80.3853 22.9103 80.3197L22.908 80.3124C22.8655 80.2423 22.8394 80.1576 22.8088 80.0779C22.7782 80.0073 22.7384 79.9413 22.7192 79.8666V79.8644C22.6959 79.7751 22.6913 79.6809 22.6817 79.5894C22.6726 79.5192 22.6534 79.4487 22.6534 79.3781V28.9458L11.7036 22.6631L3.77609 18.1234V18.1206ZM24.5435 4.04936L5.66894 14.8695L24.5389 25.6893L43.4107 14.8668L24.5389 4.04936H24.5435ZM34.3588 71.575L45.3081 65.2977V18.1206L37.3814 22.6658L26.429 28.9454V76.122L34.3588 71.575ZM92.5045 16.8179L73.6327 27.6376L92.5045 38.4578L111.374 27.6354L92.5045 16.8179ZM90.6162 41.7139L79.6646 35.4339L71.7375 30.8892V52.3083L82.6868 58.586L90.6166 63.133V41.7139H90.6162ZM47.1918 89.9824L74.8726 74.2441L88.7096 66.3796L69.8515 55.5667L48.1391 68.0156L28.3502 79.3617L47.1918 89.9824Z" fill="#FF2D20"/>
</svg>
