<svg width="50" height="50" viewBox="0 0 50 50" fill="none" xmlns="http://www.w3.org/2000/svg">
<path d="M46.0244 0.000349572H3.67495C3.1989 -0.00626189 2.72621 0.0809672 2.28388 0.257055C1.84155 0.433144 1.43824 0.694642 1.09698 1.02662C0.755719 1.35859 0.483197 1.75454 0.294976 2.19184C0.106754 2.62915 0.00652089 3.09925 0 3.5753V46.4247C0.00652089 46.9008 0.106754 47.3709 0.294976 47.8082C0.483197 48.2455 0.755719 48.6414 1.09698 48.9734C1.43824 49.3054 1.84155 49.5669 2.28388 49.7429C2.72621 49.919 3.1989 50.0063 3.67495 49.9997H46.0244C46.5004 50.0063 46.9731 49.919 47.4154 49.7429C47.8578 49.5669 48.2611 49.3054 48.6023 48.9734C48.9436 48.6414 49.2161 48.2455 49.4043 47.8082C49.5925 47.3709 49.6928 46.9008 49.6993 46.4247V3.5753C49.6928 3.09925 49.5925 2.62915 49.4043 2.19184C49.2161 1.75454 48.9436 1.35859 48.6023 1.02662C48.2611 0.694642 47.8578 0.433144 47.4154 0.257055C46.9731 0.0809672 46.5004 -0.00626189 46.0244 0.000349572ZM15.0748 41.8498H7.57489V19.3501H15.0748V41.8498ZM11.3248 16.2001C10.2905 16.2001 9.29855 15.7892 8.56716 15.0579C7.83578 14.3265 7.4249 13.3345 7.4249 12.3002C7.4249 11.2658 7.83578 10.2739 8.56716 9.5425C9.29855 8.81112 10.2905 8.40023 11.3248 8.40023C11.8741 8.33795 12.4303 8.39237 12.957 8.55994C13.4837 8.72751 13.9692 9.00445 14.3814 9.37262C14.7937 9.7408 15.1236 10.1919 15.3495 10.6964C15.5753 11.2009 15.6921 11.7474 15.6921 12.3002C15.6921 12.8529 15.5753 13.3994 15.3495 13.904C15.1236 14.4085 14.7937 14.8596 14.3814 15.2277C13.9692 15.5959 13.4837 15.8728 12.957 16.0404C12.4303 16.208 11.8741 16.2624 11.3248 16.2001ZM42.1244 41.8498H34.6245V29.7749C34.6245 26.75 33.5495 24.775 30.8246 24.775C29.9812 24.7812 29.1601 25.0457 28.4717 25.5329C27.7833 26.0202 27.2608 26.7067 26.9746 27.5C26.779 28.0876 26.6942 28.7064 26.7246 29.3249V41.8248H19.2247V19.3251H26.7246V22.5C27.4059 21.3178 28.3969 20.3439 29.5907 19.6831C30.7845 19.0223 32.136 18.6997 33.4995 18.7501C38.4995 18.7501 42.1244 21.975 42.1244 28.8999V41.8498Z" fill="#545454"/>
</svg>
