<svg width="769" height="180" viewBox="0 0 769 180" fill="none" xmlns="http://www.w3.org/2000/svg">
<path d="M197.89 132.3C192.343 132.3 187.447 130.957 183.2 128.27C179.04 125.583 175.79 121.77 173.45 116.83C171.11 111.803 169.94 105.91 169.94 99.15C169.94 92.3033 171.11 86.4533 173.45 81.6C175.79 76.66 179.04 72.8467 183.2 70.16C187.447 67.4733 192.343 66.13 197.89 66.13C203.177 66.13 207.77 67.43 211.67 70.03C215.657 72.63 218.343 76.0533 219.73 80.3H218.3V46.5C218.3 43.8133 218.993 41.7767 220.38 40.39C221.767 39.0033 223.76 38.31 226.36 38.31C228.96 38.31 230.953 39.0033 232.34 40.39C233.813 41.7767 234.55 43.8133 234.55 46.5V123.72C234.55 126.407 233.857 128.487 232.47 129.96C231.083 131.347 229.09 132.04 226.49 132.04C223.89 132.04 221.897 131.347 220.51 129.96C219.123 128.487 218.43 126.407 218.43 123.72V113.58L219.86 117.48C218.56 121.987 215.917 125.583 211.93 128.27C207.943 130.957 203.263 132.3 197.89 132.3ZM202.44 119.95C205.647 119.95 208.463 119.17 210.89 117.61C213.317 116.05 215.18 113.753 216.48 110.72C217.867 107.6 218.56 103.743 218.56 99.15C218.56 92.2167 217.087 87.06 214.14 83.68C211.193 80.2133 207.293 78.48 202.44 78.48C199.233 78.48 196.417 79.26 193.99 80.82C191.563 82.2933 189.657 84.59 188.27 87.71C186.97 90.7433 186.32 94.5567 186.32 99.15C186.32 105.997 187.793 111.197 190.74 114.75C193.687 118.217 197.587 119.95 202.44 119.95ZM278.829 132.3C274.236 132.3 270.119 131.433 266.479 129.7C262.926 127.88 260.109 125.453 258.029 122.42C256.036 119.387 255.039 115.963 255.039 112.15C255.039 107.47 256.253 103.787 258.679 101.1C261.106 98.3267 265.049 96.3333 270.509 95.12C275.969 93.9067 283.293 93.3 292.479 93.3H298.979V102.66H292.609C287.236 102.66 282.946 102.92 279.739 103.44C276.533 103.96 274.236 104.87 272.849 106.17C271.549 107.383 270.899 109.117 270.899 111.37C270.899 114.23 271.896 116.57 273.889 118.39C275.883 120.21 278.656 121.12 282.209 121.12C285.069 121.12 287.583 120.47 289.749 119.17C292.003 117.783 293.779 115.92 295.079 113.58C296.379 111.24 297.029 108.553 297.029 105.52V90.57C297.029 86.2367 296.076 83.1167 294.169 81.21C292.263 79.3033 289.056 78.35 284.549 78.35C282.036 78.35 279.306 78.6533 276.359 79.26C273.499 79.8667 270.466 80.9067 267.259 82.38C265.613 83.16 264.139 83.3767 262.839 83.03C261.626 82.6833 260.673 81.99 259.979 80.95C259.286 79.8233 258.939 78.61 258.939 77.31C258.939 76.01 259.286 74.7533 259.979 73.54C260.673 72.24 261.843 71.2867 263.489 70.68C267.476 69.0333 271.289 67.8633 274.929 67.17C278.656 66.4767 282.036 66.13 285.069 66.13C291.309 66.13 296.423 67.0833 300.409 68.99C304.483 70.8967 307.516 73.8 309.509 77.7C311.503 81.5133 312.499 86.4533 312.499 92.52V123.72C312.499 126.407 311.849 128.487 310.549 129.96C309.249 131.347 307.386 132.04 304.959 132.04C302.533 132.04 300.626 131.347 299.239 129.96C297.939 128.487 297.289 126.407 297.289 123.72V117.48H298.329C297.723 120.513 296.509 123.157 294.689 125.41C292.956 127.577 290.746 129.267 288.059 130.48C285.373 131.693 282.296 132.3 278.829 132.3ZM343.813 132.04C341.126 132.04 339.046 131.347 337.573 129.96C336.186 128.487 335.493 126.407 335.493 123.72V74.58C335.493 71.8933 336.186 69.8567 337.573 68.47C338.96 67.0833 340.91 66.39 343.423 66.39C345.936 66.39 347.886 67.0833 349.273 68.47C350.66 69.8567 351.353 71.8933 351.353 74.58V82.77H350.053C351.266 77.57 353.65 73.6267 357.203 70.94C360.756 68.2533 365.48 66.65 371.373 66.13C373.193 65.9567 374.623 66.4333 375.663 67.56C376.79 68.6 377.44 70.2467 377.613 72.5C377.786 74.6667 377.266 76.4433 376.053 77.83C374.926 79.13 373.193 79.91 370.853 80.17L367.993 80.43C362.706 80.95 358.72 82.5967 356.033 85.37C353.346 88.0567 352.003 91.87 352.003 96.81V123.72C352.003 126.407 351.31 128.487 349.923 129.96C348.536 131.347 346.5 132.04 343.813 132.04ZM400.961 132.04C398.361 132.04 396.368 131.347 394.981 129.96C393.595 128.487 392.901 126.407 392.901 123.72V46.5C392.901 43.8133 393.595 41.7767 394.981 40.39C396.368 39.0033 398.361 38.31 400.961 38.31C403.561 38.31 405.555 39.0033 406.941 40.39C408.415 41.7767 409.151 43.8133 409.151 46.5V94.47H409.411L430.861 71.85C432.595 70.1167 434.111 68.7733 435.411 67.82C436.711 66.8667 438.488 66.39 440.741 66.39C442.995 66.39 444.685 66.9967 445.811 68.21C447.025 69.3367 447.631 70.7233 447.631 72.37C447.631 74.0167 446.851 75.6633 445.291 77.31L422.671 101.23V94.47L447.501 121.25C449.061 122.897 449.755 124.587 449.581 126.32C449.495 127.967 448.801 129.353 447.501 130.48C446.201 131.52 444.555 132.04 442.561 132.04C440.135 132.04 438.185 131.563 436.711 130.61C435.325 129.657 433.765 128.227 432.031 126.32L409.411 102.66H409.151V123.72C409.151 129.267 406.421 132.04 400.961 132.04ZM481.578 132.04C478.978 132.04 476.942 131.347 475.468 129.96C474.082 128.487 473.388 126.407 473.388 123.72V79.65H467.408C465.328 79.65 463.725 79.13 462.598 78.09C461.472 76.9633 460.908 75.4467 460.908 73.54C460.908 71.5467 461.472 70.03 462.598 68.99C463.725 67.95 465.328 67.43 467.408 67.43H478.068L473.388 71.72V67.3C473.388 58.3733 475.642 51.7 480.148 47.28C484.655 42.7733 491.155 40.13 499.648 39.35L504.068 38.96C505.802 38.7867 507.188 39.09 508.228 39.87C509.268 40.5633 509.962 41.5167 510.308 42.73C510.655 43.8567 510.698 45.0267 510.438 46.24C510.178 47.4533 509.615 48.5367 508.748 49.49C507.968 50.3567 506.928 50.8333 505.628 50.92L503.808 51.05C498.868 51.3967 495.272 52.6533 493.018 54.82C490.765 56.9867 489.638 60.28 489.638 64.7V69.51L487.558 67.43H500.688C502.768 67.43 504.372 67.95 505.498 68.99C506.625 70.03 507.188 71.5467 507.188 73.54C507.188 75.4467 506.625 76.9633 505.498 78.09C504.372 79.13 502.768 79.65 500.688 79.65H489.638V123.72C489.638 129.267 486.952 132.04 481.578 132.04ZM550.292 132.3C543.705 132.3 537.985 130.957 533.132 128.27C528.278 125.583 524.508 121.77 521.822 116.83C519.135 111.803 517.792 105.91 517.792 99.15C517.792 94.0367 518.528 89.4867 520.002 85.5C521.562 81.4267 523.772 77.96 526.632 75.1C529.492 72.1533 532.915 69.9433 536.902 68.47C540.888 66.91 545.352 66.13 550.292 66.13C556.878 66.13 562.598 67.4733 567.452 70.16C572.305 72.8467 576.075 76.66 578.762 81.6C581.448 86.54 582.792 92.39 582.792 99.15C582.792 104.263 582.012 108.857 580.452 112.93C578.978 117.003 576.812 120.513 573.952 123.46C571.092 126.32 567.668 128.53 563.682 130.09C559.695 131.563 555.232 132.3 550.292 132.3ZM550.292 119.95C553.498 119.95 556.315 119.17 558.742 117.61C561.168 116.05 563.032 113.753 564.332 110.72C565.718 107.6 566.412 103.743 566.412 99.15C566.412 92.2167 564.938 87.06 561.992 83.68C559.045 80.2133 555.145 78.48 550.292 78.48C547.085 78.48 544.268 79.26 541.842 80.82C539.415 82.2933 537.508 84.59 536.122 87.71C534.822 90.7433 534.172 94.5567 534.172 99.15C534.172 105.997 535.645 111.197 538.592 114.75C541.538 118.217 545.438 119.95 550.292 119.95ZM624.414 132.3C617.221 132.3 611.804 130.263 608.164 126.19C604.524 122.03 602.704 115.963 602.704 107.99V46.5C602.704 43.8133 603.397 41.7767 604.784 40.39C606.171 39.0033 608.164 38.31 610.764 38.31C613.364 38.31 615.357 39.0033 616.744 40.39C618.217 41.7767 618.954 43.8133 618.954 46.5V107.21C618.954 111.197 619.777 114.143 621.424 116.05C623.157 117.957 625.584 118.91 628.704 118.91C629.397 118.91 630.047 118.91 630.654 118.91C631.261 118.823 631.867 118.737 632.474 118.65C633.687 118.477 634.511 118.823 634.944 119.69C635.377 120.47 635.594 122.117 635.594 124.63C635.594 126.797 635.161 128.487 634.294 129.7C633.427 130.913 631.997 131.65 630.004 131.91C629.137 131.997 628.227 132.083 627.274 132.17C626.321 132.257 625.367 132.3 624.414 132.3ZM658.778 131.91C656.178 131.91 654.184 131.13 652.798 129.57C651.411 128.01 650.718 125.843 650.718 123.07V75.36C650.718 72.5 651.411 70.3333 652.798 68.86C654.184 67.3 656.178 66.52 658.778 66.52C661.378 66.52 663.371 67.3 664.758 68.86C666.231 70.3333 666.968 72.5 666.968 75.36V123.07C666.968 125.843 666.274 128.01 664.888 129.57C663.501 131.13 661.464 131.91 658.778 131.91ZM658.778 54.43C655.744 54.43 653.361 53.6933 651.628 52.22C649.981 50.66 649.158 48.5367 649.158 45.85C649.158 43.0767 649.981 40.9533 651.628 39.48C653.361 38.0067 655.744 37.27 658.778 37.27C661.898 37.27 664.281 38.0067 665.928 39.48C667.574 40.9533 668.398 43.0767 668.398 45.85C668.398 48.5367 667.574 50.66 665.928 52.22C664.281 53.6933 661.898 54.43 658.778 54.43ZM719.342 132.3C712.756 132.3 707.036 130.957 702.182 128.27C697.329 125.583 693.559 121.77 690.872 116.83C688.186 111.803 686.842 105.91 686.842 99.15C686.842 94.0367 687.579 89.4867 689.052 85.5C690.612 81.4267 692.822 77.96 695.682 75.1C698.542 72.1533 701.966 69.9433 705.952 68.47C709.939 66.91 714.402 66.13 719.342 66.13C725.929 66.13 731.649 67.4733 736.502 70.16C741.356 72.8467 745.126 76.66 747.812 81.6C750.499 86.54 751.842 92.39 751.842 99.15C751.842 104.263 751.062 108.857 749.502 112.93C748.029 117.003 745.862 120.513 743.002 123.46C740.142 126.32 736.719 128.53 732.732 130.09C728.746 131.563 724.282 132.3 719.342 132.3ZM719.342 119.95C722.549 119.95 725.366 119.17 727.792 117.61C730.219 116.05 732.082 113.753 733.382 110.72C734.769 107.6 735.462 103.743 735.462 99.15C735.462 92.2167 733.989 87.06 731.042 83.68C728.096 80.2133 724.196 78.48 719.342 78.48C716.136 78.48 713.319 79.26 710.892 80.82C708.466 82.2933 706.559 84.59 705.172 87.71C703.872 90.7433 703.222 94.5567 703.222 99.15C703.222 105.997 704.696 111.197 707.642 114.75C710.589 118.217 714.489 119.95 719.342 119.95Z" fill="white"/>
<rect x="6" y="13" width="127.119" height="150" rx="8" fill="white" fill-opacity="0.92"/>
<g filter="url(#filter0_d_156_38)">
<path d="M25 41H115.929" stroke="#292929" stroke-width="12" stroke-linecap="round"/>
</g>
<g filter="url(#filter1_d_156_38)">
<path d="M25 85.2062H45.6656" stroke="#292929" stroke-width="12" stroke-linecap="round"/>
</g>
<g filter="url(#filter2_d_156_38)">
<path d="M64.4825 85.2062L113.294 85.2062" stroke="#292929" stroke-width="12" stroke-linecap="round"/>
</g>
<g filter="url(#filter3_d_156_38)">
<path d="M25 130.765H115.929" stroke="#292929" stroke-width="12" stroke-linecap="round"/>
</g>
<defs>
<filter id="filter0_d_156_38" x="0" y="35" width="140.929" height="55" filterUnits="userSpaceOnUse" color-interpolation-filters="sRGB">
<feFlood flood-opacity="0" result="BackgroundImageFix"/>
<feColorMatrix in="SourceAlpha" type="matrix" values="0 0 0 0 0 0 0 0 0 0 0 0 0 0 0 0 0 0 127 0" result="hardAlpha"/>
<feOffset dy="24"/>
<feGaussianBlur stdDeviation="9.5"/>
<feComposite in2="hardAlpha" operator="out"/>
<feColorMatrix type="matrix" values="0 0 0 0 0 0 0 0 0 0 0 0 0 0 0 0 0 0 0.25 0"/>
<feBlend mode="normal" in2="BackgroundImageFix" result="effect1_dropShadow_156_38"/>
<feBlend mode="normal" in="SourceGraphic" in2="effect1_dropShadow_156_38" result="shape"/>
</filter>
<filter id="filter1_d_156_38" x="0" y="79.2062" width="70.6656" height="55" filterUnits="userSpaceOnUse" color-interpolation-filters="sRGB">
<feFlood flood-opacity="0" result="BackgroundImageFix"/>
<feColorMatrix in="SourceAlpha" type="matrix" values="0 0 0 0 0 0 0 0 0 0 0 0 0 0 0 0 0 0 127 0" result="hardAlpha"/>
<feOffset dy="24"/>
<feGaussianBlur stdDeviation="9.5"/>
<feComposite in2="hardAlpha" operator="out"/>
<feColorMatrix type="matrix" values="0 0 0 0 0 0 0 0 0 0 0 0 0 0 0 0 0 0 0.25 0"/>
<feBlend mode="normal" in2="BackgroundImageFix" result="effect1_dropShadow_156_38"/>
<feBlend mode="normal" in="SourceGraphic" in2="effect1_dropShadow_156_38" result="shape"/>
</filter>
<filter id="filter2_d_156_38" x="39.4825" y="79.2062" width="98.8113" height="55" filterUnits="userSpaceOnUse" color-interpolation-filters="sRGB">
<feFlood flood-opacity="0" result="BackgroundImageFix"/>
<feColorMatrix in="SourceAlpha" type="matrix" values="0 0 0 0 0 0 0 0 0 0 0 0 0 0 0 0 0 0 127 0" result="hardAlpha"/>
<feOffset dy="24"/>
<feGaussianBlur stdDeviation="9.5"/>
<feComposite in2="hardAlpha" operator="out"/>
<feColorMatrix type="matrix" values="0 0 0 0 0 0 0 0 0 0 0 0 0 0 0 0 0 0 0.25 0"/>
<feBlend mode="normal" in2="BackgroundImageFix" result="effect1_dropShadow_156_38"/>
<feBlend mode="normal" in="SourceGraphic" in2="effect1_dropShadow_156_38" result="shape"/>
</filter>
<filter id="filter3_d_156_38" x="0" y="124.765" width="140.929" height="55" filterUnits="userSpaceOnUse" color-interpolation-filters="sRGB">
<feFlood flood-opacity="0" result="BackgroundImageFix"/>
<feColorMatrix in="SourceAlpha" type="matrix" values="0 0 0 0 0 0 0 0 0 0 0 0 0 0 0 0 0 0 127 0" result="hardAlpha"/>
<feOffset dy="24"/>
<feGaussianBlur stdDeviation="9.5"/>
<feComposite in2="hardAlpha" operator="out"/>
<feColorMatrix type="matrix" values="0 0 0 0 0 0 0 0 0 0 0 0 0 0 0 0 0 0 0.25 0"/>
<feBlend mode="normal" in2="BackgroundImageFix" result="effect1_dropShadow_156_38"/>
<feBlend mode="normal" in="SourceGraphic" in2="effect1_dropShadow_156_38" result="shape"/>
</filter>
</defs>
</svg>
