<svg width="120" height="120" viewBox="0 0 120 120" fill="none" xmlns="http://www.w3.org/2000/svg">
<path d="M60 87.6188C88.9949 87.6188 112.5 75.2535 112.5 60.0001C112.5 44.7467 88.9949 32.3813 60 32.3813C31.0051 32.3813 7.5 44.7467 7.5 60.0001C7.5 75.2535 31.0051 87.6188 60 87.6188Z" fill="url(#paint0_radial_146_77)"/>
<path d="M60 85.5676C87.8621 85.5676 110.449 74.1207 110.449 60.0001C110.449 45.8796 87.8621 34.4326 60 34.4326C32.1379 34.4326 9.55127 45.8796 9.55127 60.0001C9.55127 74.1207 32.1379 85.5676 60 85.5676Z" fill="#6280B6"/>
<path d="M70.2188 68.2499L72.72 55.3724C73.0764 54.2703 73.135 53.0936 72.89 51.9616C72.645 50.8295 72.1051 49.7823 71.325 48.9262C69.1475 47.3799 66.4812 46.6801 63.825 46.9574H59.5013L60.7425 40.5824C60.7652 40.4637 60.7613 40.3415 60.7312 40.2244C60.7012 40.1074 60.6457 39.9984 60.5687 39.9053C60.4917 39.8122 60.3951 39.7372 60.2858 39.6857C60.1765 39.6342 60.0571 39.6075 59.9363 39.6074H53.9363C53.7458 39.6074 53.5612 39.6735 53.4141 39.7946C53.267 39.9157 53.1666 40.0842 53.13 40.2712L50.4713 53.9437C50.2667 52.4818 49.6457 51.1097 48.6825 49.9912C47.6102 48.9172 46.3164 48.0901 44.8916 47.5674C43.4667 47.0447 41.945 46.8391 40.4325 46.9649H28.875C28.6845 46.9649 28.4999 47.031 28.3528 47.1521C28.2057 47.2732 28.1053 47.4417 28.0688 47.6287L22.6913 75.3037C22.6687 75.4224 22.6725 75.5446 22.7026 75.6616C22.7326 75.7787 22.7881 75.8877 22.8651 75.9808C22.9421 76.0739 23.0387 76.1489 23.148 76.2004C23.2574 76.2519 23.3767 76.2786 23.4975 76.2787H29.5088C29.6993 76.2787 29.8839 76.2125 30.031 76.0915C30.1781 75.9704 30.2785 75.8019 30.315 75.6149L31.6163 68.9212H36.1163C38.1031 68.9742 40.0863 68.7213 41.9963 68.1712C43.6067 67.6384 45.0793 66.756 46.3088 65.5874C47.3163 64.6697 48.1764 63.6021 48.8588 62.4224L47.7825 67.9537C47.7599 68.0724 47.7638 68.1946 47.7938 68.3116C47.8239 68.4287 47.8794 68.5377 47.9564 68.6308C48.0334 68.7239 48.13 68.7989 48.2393 68.8504C48.3486 68.9019 48.4679 68.9286 48.5888 68.9287H54.5888C54.7793 68.9287 54.9639 68.8625 55.111 68.7415C55.2581 68.6204 55.3585 68.4519 55.395 68.2649L58.3463 53.0737H62.4488C64.1963 53.0737 64.6988 53.4224 64.8488 53.5724C64.9988 53.7224 65.2238 54.1912 64.9425 55.7062L62.5613 67.9499C62.5387 68.0686 62.5425 68.1909 62.5726 68.3079C62.6026 68.4249 62.6581 68.5339 62.7351 68.627C62.8121 68.7201 62.9087 68.7951 63.018 68.8466C63.1274 68.8981 63.2467 68.9248 63.3675 68.9249H69.4425C69.6294 68.9176 69.8083 68.8468 69.9494 68.724C70.0906 68.6013 70.1856 68.434 70.2188 68.2499ZM42.4875 57.6224C42.3041 59.1968 41.5568 60.6515 40.3838 61.7174C38.9103 62.6339 37.1826 63.0557 35.4525 62.9212H32.7825L34.7138 52.9799H38.1675C40.7063 52.9799 41.7263 53.5237 42.1388 53.9774C42.4534 54.525 42.6473 55.1335 42.7075 55.7622C42.7676 56.3909 42.6926 57.0251 42.4875 57.6224ZM95.7975 49.9949C94.7251 48.921 93.4314 48.0938 92.0066 47.5711C90.5817 47.0485 89.06 46.8429 87.5475 46.9687H75.9563C75.7658 46.9686 75.5811 47.0348 75.4341 47.1559C75.287 47.277 75.1866 47.4454 75.15 47.6324L69.7725 75.3074C69.7499 75.4261 69.7538 75.5484 69.7838 75.6654C69.8139 75.7824 69.8694 75.8914 69.9464 75.9845C70.0234 76.0777 70.12 76.1526 70.2293 76.2041C70.3386 76.2556 70.4579 76.2823 70.5788 76.2824H76.6088C76.7993 76.2825 76.9839 76.2163 77.131 76.0952C77.2781 75.9741 77.3785 75.8057 77.415 75.6187L78.7163 68.9249H83.2163C85.2031 68.978 87.1863 68.725 89.0963 68.1749C90.7067 67.6421 92.1793 66.7598 93.4088 65.5912C95.5143 63.6936 96.933 61.1529 97.4438 58.3649C97.8472 56.9386 97.9084 55.4373 97.6224 53.9829C97.3363 52.5285 96.7111 51.1622 95.7975 49.9949ZM89.5463 57.6224C89.3629 59.1968 88.6155 60.6515 87.4425 61.7174C85.9655 62.635 84.2334 63.0555 82.5 62.9174H79.8375L81.7688 52.9762H85.2225C87.7613 52.9762 88.7813 53.5199 89.1938 53.9737C89.5096 54.5214 89.7045 55.1305 89.7653 55.7599C89.8261 56.3892 89.7514 57.0243 89.5463 57.6224Z" fill="white"/>
<path d="M38.1675 52.1551C38.9766 52.0533 39.7979 52.1128 40.5838 52.3304C41.3697 52.548 42.1047 52.9192 42.7463 53.4226C43.1602 54.06 43.4242 54.7829 43.5184 55.537C43.6126 56.2911 43.5345 57.0568 43.29 57.7764C43.0756 59.5482 42.2191 61.1799 40.8825 62.3626C39.2705 63.4009 37.365 63.8878 35.4525 63.7501H31.785L34.035 52.1664L38.1675 52.1551ZM23.4788 75.4651H29.5088L30.9375 68.1076H36.1013C38.0019 68.1595 39.8992 67.9179 41.7263 67.3914C43.2257 66.8963 44.5963 66.0739 45.7388 64.9839C47.7163 63.2049 49.0483 60.8205 49.5263 58.2039C49.9047 56.9026 49.9712 55.5306 49.7203 54.1988C49.4695 52.8671 48.9084 51.6133 48.0825 50.5389C47.0867 49.5539 45.8879 48.798 44.5699 48.3239C43.2519 47.8498 41.8464 47.6689 40.4513 47.7939H28.875L23.4788 75.4651ZM53.9513 40.4326H59.9513L58.5 47.7901H63.8288C66.2762 47.534 68.735 48.156 70.7663 49.5451C71.4386 50.3093 71.8981 51.2368 72.0989 52.2346C72.2996 53.2324 72.2345 54.2654 71.91 55.2301L69.4088 68.1076H63.3375L65.7188 55.8639C65.8846 55.3965 65.9437 54.898 65.8918 54.4049C65.8399 53.9117 65.6783 53.4364 65.4188 53.0139C64.5504 52.3918 63.4777 52.1236 62.4188 52.2639H57.6375L54.555 68.1189H48.555L53.9513 40.4326ZM85.2263 52.1551C86.0354 52.0533 86.8566 52.1128 87.6426 52.3304C88.4285 52.548 89.1635 52.9192 89.805 53.4226C90.219 54.06 90.483 54.7829 90.5772 55.537C90.6714 56.2911 90.5933 57.0568 90.3488 57.7764C90.1344 59.5482 89.2779 61.1799 87.9413 62.3626C86.3261 63.4033 84.4163 63.8903 82.5 63.7501H78.8325L81.0825 52.1664L85.2263 52.1551ZM70.5375 75.4651H76.5675L77.9963 68.1076H83.16C85.0607 68.1595 86.958 67.9179 88.785 67.3914C90.2845 66.8963 91.655 66.0739 92.7975 64.9839C94.7751 63.2049 96.1071 60.8205 96.585 58.2039C96.9634 56.9026 97.0299 55.5306 96.7791 54.1988C96.5283 52.8671 95.9671 51.6133 95.1413 50.5389C94.1454 49.5539 92.9467 48.798 91.6287 48.3239C90.3107 47.8498 88.9051 47.6689 87.51 47.7939H75.915L70.5375 75.4651Z" fill="#000004"/>
<defs>
<radialGradient id="paint0_radial_146_77" cx="0" cy="0" r="1" gradientUnits="userSpaceOnUse" gradientTransform="translate(39.0225 42.0938) scale(68.94)">
<stop stop-color="white"/>
<stop offset="0.5" stop-color="#4C6B96"/>
<stop offset="1" stop-color="#231F20"/>
</radialGradient>
</defs>
</svg>
