<svg width="51" height="51" viewBox="0 0 51 51" fill="none" xmlns="http://www.w3.org/2000/svg">
<path d="M26 0C39.8075 0 51 11.1925 51 25C51 38.8075 39.8075 50 26 50C21.582 50.0071 17.2417 48.8379 13.425 46.6125L1.01004 50L4.39003 37.58C2.16277 33.7622 0.992654 29.42 1.00003 25C1.00003 11.1925 12.1925 0 26 0ZM17.48 13.25L16.98 13.27C16.6563 13.2897 16.34 13.3747 16.05 13.52C15.7788 13.6736 15.5313 13.8656 15.315 14.09C15.015 14.3725 14.845 14.6175 14.6625 14.855C13.7378 16.0572 13.24 17.5333 13.2475 19.05C13.2525 20.275 13.5725 21.4675 14.0725 22.5825C15.095 24.8375 16.7775 27.225 18.9975 29.4375C19.5325 29.97 20.0575 30.505 20.6225 31.0025C23.381 33.4311 26.6682 35.1826 30.2225 36.1175L31.6425 36.335C32.105 36.36 32.5675 36.325 33.0325 36.3025C33.7606 36.2649 34.4715 36.0677 35.115 35.725C35.4424 35.5563 35.7619 35.3728 36.0725 35.175C36.0725 35.175 36.18 35.105 36.385 34.95C36.7225 34.7 36.93 34.5225 37.21 34.23C37.4175 34.015 37.5975 33.7625 37.735 33.475C37.93 33.0675 38.125 32.29 38.205 31.6425C38.265 31.1475 38.2475 30.8775 38.24 30.71C38.23 30.4425 38.0075 30.165 37.765 30.0475L36.31 29.395C36.31 29.395 34.135 28.4475 32.805 27.8425C32.6658 27.7817 32.5167 27.747 32.365 27.74C32.194 27.7224 32.0211 27.7417 31.8581 27.7964C31.6951 27.8512 31.5458 27.9402 31.42 28.0575C31.4075 28.0525 31.24 28.195 29.4325 30.385C29.3288 30.5244 29.1859 30.6297 29.022 30.6876C28.8582 30.7455 28.6808 30.7533 28.5125 30.71C28.3497 30.6663 28.1901 30.6112 28.035 30.545C27.725 30.415 27.6175 30.365 27.405 30.275C25.9702 29.6488 24.6417 28.8029 23.4675 27.7675C23.1525 27.4925 22.86 27.1925 22.56 26.9025C21.5765 25.9606 20.7193 24.895 20.01 23.7325L19.8625 23.495C19.7566 23.3354 19.6709 23.1632 19.6075 22.9825C19.5125 22.615 19.76 22.32 19.76 22.32C19.76 22.32 20.3675 21.655 20.65 21.295C20.925 20.945 21.1575 20.605 21.3075 20.3625C21.6025 19.8875 21.695 19.4 21.54 19.0225C20.84 17.3125 20.115 15.61 19.37 13.92C19.2225 13.585 18.785 13.345 18.3875 13.2975C18.2525 13.2825 18.1175 13.2675 17.9825 13.2575C17.6468 13.2408 17.3104 13.2442 16.975 13.2675L17.4775 13.2475L17.48 13.25Z" fill="#545454"/>
</svg>
